<svg width="130" height="135" viewBox="0 0 130 135" fill="none" xmlns="http://www.w3.org/2000/svg">
<path fill-rule="evenodd" clip-rule="evenodd" d="M73.7561 65.6757C83.8297 56.0096 90.6477 44.1636 89.5084 30.8899C86.2258 -7.35535 21.0997 1.05813 8.43127 20.3611C-4.23711 39.664 -2.73177 88.6275 13.641 92.0774C20.1704 93.4533 34.0801 90.083 48.2368 83.1076L39.3509 134.498H91.8187L73.7561 65.6757Z" fill="#B28B67"/>
<path fill-rule="evenodd" clip-rule="evenodd" d="M20.2547 7.63235C21.4565 7.04598 23.9709 5.80917 25.2447 5.36091C25.5462 5.25304 27.6567 4.02215 27.7135 4.03774C29.3114 4.47845 33.9387 6.10555 34.3359 7.51152C34.3974 7.61807 34.4579 7.71801 34.5167 7.80536C35.1724 8.77975 35.774 9.77838 36.348 10.7891C37.6074 13.0079 38.6945 15.3268 39.7328 17.6275C41.7552 22.1082 43.5121 26.6933 45.1275 31.2888C46.772 35.967 48.1678 40.6997 49.7304 45.3972C51.9788 52.1567 54.8565 58.7503 57.0894 65.5069C58.5152 69.8212 59.3083 74.1861 58.9338 78.6265C58.9302 78.6799 58.9281 78.7325 58.9221 78.7868C58.9199 78.809 58.9165 78.8309 58.9141 78.8531C58.8504 79.5357 58.7596 80.22 58.6386 80.9063C58.5327 81.4931 58.4266 82.0821 58.3133 82.671C56.2737 79.3463 54.7166 75.6828 53.0641 72.2056C52.9024 71.8652 52.7482 71.5223 52.5976 71.1783C52.0648 70.4732 51.5215 69.7731 50.9721 69.0756C47.5076 64.6775 44.0294 60.2955 40.7073 55.8179C34.7319 47.7644 28.8123 39.5407 21.7281 32.1453C19.6362 29.9615 17.4957 27.8112 15.4301 25.6094C14.2547 24.3566 13.1098 23.0827 12.002 21.7862C11.2101 20.859 7.76713 17.6275 9.0139 15.6859C9.6518 14.6925 17.1372 9.15362 20.2547 7.63235Z" fill="#2C2C2C"/>
<path fill-rule="evenodd" clip-rule="evenodd" d="M24.8653 5.52307C23.6966 5.84413 24.2652 3.85603 25.3972 3.15641C30.6415 -0.0847569 50.6912 -1.26091 68.1389 1.69991C79.8272 3.68338 93.421 8.62014 102.757 14.9667C111.173 20.6882 116.961 29.86 119.941 38.7215C123.069 48.0263 123.543 57.7269 121.8 67.2685C121.417 69.3643 120.594 71.3617 120.136 73.4131C119.619 75.7232 119.355 77.9475 118.434 80.195C117.871 81.571 116.913 82.92 116.432 84.3038C115.883 85.8829 116.217 87.3438 116.618 88.9499C117.27 91.5677 118.079 94.1801 119.229 96.6802C120.955 100.435 123.05 103.951 124.363 107.847C126.111 113.03 133.421 129.9 128.079 134.498H26.3817C28.9425 128.787 36.6292 122.067 38.1854 115.954C39.1019 112.353 39.5379 104.489 39.6339 104.203C41.9256 91.2891 46.4005 85.122 49.2031 82.8839C52.0057 80.6457 55.7386 79.9575 55.931 78.0161C56.7259 69.9866 52.82 62.2931 49.956 54.7994C46.5425 45.868 44.041 36.7151 40.5219 27.814C38.9636 23.8724 30.9336 3.85603 24.8653 5.52307Z" fill="#8991DC"/>
<path fill-rule="evenodd" clip-rule="evenodd" d="M60.5215 14.7603C64.3564 24.7073 65.1812 30.017 64.3564 43.6082H66.2377C69.752 30.7822 66.6242 18.7078 62.886 14.7603H60.5215ZM111.97 40.431C104.824 54.6066 101.566 62.9775 81.6089 74.4487L83.15 75.3307C102.961 66.1523 108.73 55.2039 113.474 41.0216L111.97 40.431ZM82.6073 26.0054C79.3614 46.1262 78.4138 57.6192 61.5043 79.6286L63.3034 80.0782C80.7061 60.9148 83.4647 45.2738 84.2869 26.1159L82.6073 26.0054ZM101.286 85.7739L99.7467 84.2444C78.7435 89.6222 81.0831 100.725 54.6294 111.969L56.8401 113.064C80.0037 105.25 85.4185 88.4886 101.286 85.7739Z" fill="black" fill-opacity="0.2"/>
</svg>
