<svg width="539" height="783" viewBox="0 0 539 783" fill="none" xmlns="http://www.w3.org/2000/svg">
<path fill-rule="evenodd" clip-rule="evenodd" d="M271.55 99.6986C264.571 89.0319 260.362 76.1918 262.545 62.1727C268.834 21.7797 319.197 33.4302 327.281 54.4186C335.364 75.407 329.432 127.233 316.231 130.202C310.966 131.386 300.362 127.23 289.913 119.244L291.912 174.078L250.68 171.875L271.55 99.6986Z" fill="#915B3C"/>
<path fill-rule="evenodd" clip-rule="evenodd" d="M242.627 47.6209C241.365 46.0794 240.78 43.9533 240.288 41.9384C239.776 39.8453 239.286 37.7322 239.008 35.5692C238.454 31.2473 238.838 26.3396 241.956 23.2005C244.457 20.6833 247.985 19.7014 251.175 19.636C253.299 19.5923 255.442 20.0403 257.409 20.8737C259.361 21.7006 260.979 23.2097 262.856 24.1997C263.298 19.6058 264.421 14.8394 266.922 11.0467C269.328 7.39746 272.852 5.48251 276.717 5.15512C280.685 4.81918 284.478 6.03481 287.826 8.27471C288.665 8.83567 289.493 9.42028 290.278 10.0726C290.935 10.6189 291.612 11.2698 292.414 11.5247C293.309 11.809 293.806 11.2743 294.456 10.6002C295.218 9.80981 296.06 9.1241 296.941 8.52444C300.837 5.87341 305.742 4.98525 309.851 6.96814C311.744 7.88173 313.539 9.34645 314.718 11.2857C315.769 13.0144 316.403 15.6933 317.944 16.9471C318.598 17.4794 319.139 16.8603 319.809 16.4192C320.814 15.7563 321.782 15.0163 322.797 14.3738C324.224 13.4711 325.742 12.8235 327.335 12.5333C329.668 12.1085 332.818 12.434 333.216 15.6703C333.366 16.8859 333.075 18.1585 332.898 19.3633C332.657 21.0177 332.41 22.6712 332.142 24.3215C331.939 25.5746 331.712 26.783 331.39 28.006C331.219 28.658 330.749 29.8642 330.961 30.5405C331.226 31.3859 332.791 31.0102 333.442 31.0788C334.727 31.2144 336.002 31.5348 337.148 32.1955C338.035 32.7077 338.953 33.4372 339.253 34.591C339.437 35.2998 339.317 36.009 339.146 36.7162C338.942 37.5649 339.061 38.029 339.093 38.9C340.898 38.0959 347.061 36.4411 347.551 39.7987C347.714 40.9168 347.042 42.1277 346.531 43.0309C345.634 44.6151 344.51 46.0445 343.37 47.4034C340.991 50.2384 338.229 52.6402 335.303 54.6598C338.404 56.3857 338.884 60.9468 335.879 63.4631C334.552 64.5741 332.874 64.7369 331.326 64.5661C330.759 64.5036 329.958 64.2201 329.502 64.2985C329.256 64.3406 328.981 64.5427 328.645 64.5466C326.439 64.5728 324.008 63.8576 321.905 63.2073C318.158 62.0484 314.696 59.8959 311.977 56.7739C311.28 55.9731 310.688 55.5004 309.668 55.4492C308.773 55.4042 307.875 55.6121 306.98 55.5817C304.613 55.5017 302.581 54.1392 300.453 53.1849C300.066 56.3388 298.943 59.77 297.503 62.5408C296.329 64.8002 294.237 65.0112 292.192 65.0907C285.653 65.3455 279.2 64.2209 272.704 63.8335C278.871 65.7342 285.318 66.7564 291.408 68.9217C294.16 69.9004 291.847 71.7947 290.53 73.1254C288.362 75.3166 286.658 78.0918 285.393 81.0478C282.659 76.5818 277.448 73.4307 272.526 74.4506C267.088 75.5772 262.726 83.0274 265.687 88.7561C267.407 92.0817 270.876 93.5371 273.735 95.0954C271.213 97.5231 270.349 101.283 268.699 104.395C267.886 105.929 266.778 107.652 265.196 108.108C264.611 108.276 263.943 108.253 263.455 108.72C262.85 109.299 262.662 109.975 261.91 110.459C258.909 112.387 254.497 111.954 252.205 109.059C250.133 106.44 251.038 102.551 253.136 100.153C250.224 98.6255 244.862 96.5627 246.464 91.6179C239.959 90.7547 224.983 78.4647 234.424 70.7298C229.838 67.5299 225.98 60.1587 229.575 54.0886C232.344 49.4144 238.059 47.5986 242.627 47.6209Z" fill="#191847"/>
<path fill-rule="evenodd" clip-rule="evenodd" d="M215.212 333.696L349.324 566.747L449.869 763.772H471.525L303.061 333.696L215.212 333.696Z" fill="#784931"/>
<path fill-rule="evenodd" clip-rule="evenodd" d="M436.627 754.676C434.608 760.279 433.598 764.471 433.598 767.253C433.598 770.635 434.141 775.572 435.225 782.062C439.001 782.062 472.933 782.062 537.022 782.062C539.667 772.972 538.14 768.065 532.44 767.34C526.741 766.615 522.006 765.961 518.237 765.377L470.923 743.452C470.012 743.03 468.945 743.455 468.539 744.402C468.532 744.418 468.526 744.434 468.519 744.451L465.478 752.119C460.202 754.678 455.914 755.957 452.615 755.957C449.935 755.957 446.234 754.832 441.512 752.582L441.512 752.582C439.699 751.718 437.557 752.545 436.726 754.429C436.69 754.51 436.657 754.593 436.627 754.676Z" fill="#E4E4E4"/>
<path fill-rule="evenodd" clip-rule="evenodd" d="M421.945 732.222L463.709 719.09C445.411 662.232 422.984 599.662 396.428 531.379C369.873 463.097 341.353 397.202 310.869 333.696H192.912C226.803 414.029 262.733 487.021 300.7 552.674C338.668 618.326 379.083 678.176 421.945 732.222Z" fill="#5C63AB"/>
<path fill-rule="evenodd" clip-rule="evenodd" d="M206.398 333.696C193.741 415.592 169.328 520.223 167.024 523.452C165.488 525.605 110.193 544.864 1.13928 581.23L5.81735 601.08C135.864 581.577 204.387 566.445 211.387 555.685C221.888 539.546 274.318 412.044 294.625 333.696H206.398Z" fill="#915B3C"/>
<path fill-rule="evenodd" clip-rule="evenodd" d="M39.4735 564.071L47.7134 596.041C144.98 604.908 204.578 598.501 226.506 576.819C248.435 555.138 273.427 474.096 301.482 333.696H189.002C171.227 448.665 161.29 508.563 159.19 513.389C157.09 518.215 117.185 535.109 39.4735 564.071Z" fill="#8991DC"/>
<path fill-rule="evenodd" clip-rule="evenodd" d="M4.87591 572.668C-0.486487 571.393 -4.40042 570.958 -6.8659 571.362C-9.8645 571.853 -14.1338 573.131 -19.6738 575.195C-18.9327 579.099 -12.2729 614.191 0.305733 680.47C8.88228 681.885 12.9325 679.593 12.4563 673.594C11.9802 667.595 11.631 662.603 11.4088 658.62L21.556 606.505C21.7512 605.503 21.1649 604.461 20.2465 604.178C20.2308 604.174 20.215 604.169 20.1992 604.165L12.8052 602.133C9.50163 597.048 7.52611 592.8 6.87867 589.389C6.35265 586.617 6.62347 582.626 7.69112 577.415L7.69114 577.415C8.10085 575.416 6.94727 573.32 5.11455 572.734C5.03556 572.709 4.95596 572.687 4.87591 572.668Z" fill="#E4E4E4"/>
<path fill-rule="evenodd" clip-rule="evenodd" d="M376.172 308.711L423.323 364.429C437.611 371.567 449.192 379.424 458.066 388C460.002 390.876 461.962 396.377 452.161 393.862C442.36 391.347 431.921 389.204 429.822 392.826C427.723 396.447 432.887 402.047 429.131 406.78C426.627 409.936 419.506 399.808 407.77 376.398L357.31 341.258L376.172 308.711ZM126.875 247.546L156.544 258.974C105.588 333.54 78.399 372.926 74.9786 377.131C67.2826 386.591 69.547 406.303 69.8713 416.557C56.494 418.072 65.2945 397.012 48.3168 399.215C32.8202 401.225 18.4517 410.066 7.14496 393.694C5.75486 391.681 5.46592 385.977 11.7314 383.982C27.341 379.01 50.8833 368.877 55.2154 364.245C61.123 357.93 85.0096 319.03 126.875 247.546Z" fill="#915B3C"/>
<path fill-rule="evenodd" clip-rule="evenodd" d="M385.338 321.989C392.478 322.563 399.878 325.077 407.49 329.44C411.236 331.587 412.473 336.755 410.254 340.983C408.965 343.438 406.793 345.037 404.466 345.524C405.791 347.038 407.131 348.547 408.487 350.051L388.704 378.849C336.848 337.642 286.963 304.84 272.288 248.22C267.363 229.216 281.784 169.676 285.208 147.723L305.133 142.389C319.428 204.676 343.206 266.052 385.338 321.989Z" fill="#69A1AC"/>
<path fill-rule="evenodd" clip-rule="evenodd" d="M179.191 337.685C231.474 352.815 273.614 359.61 305.608 358.069C309.572 357.878 312.903 339.712 312.092 334.473C299.461 252.89 292.258 193.497 302.59 139.912C296.981 142.01 288.064 141.023 275.839 136.948C231.28 186.701 203.476 247.548 179.191 337.685Z" fill="#191847"/>
<path fill-rule="evenodd" clip-rule="evenodd" d="M167.358 341.411C165.91 339.232 165.511 336.251 166.535 333.413L168.486 328.007C169.808 324.344 173.093 322.052 176.432 322.149C177.543 319.424 178.573 316.705 179.512 313.992C187.452 291.078 186.029 267.122 190.651 244.57C158.42 265.928 125.393 306.462 91.5713 366.174L61.5449 350.561C63.7345 345.73 65.9561 340.969 68.2095 336.276C64.9596 333.353 62.69 321.996 66.1426 320.714C69.7084 319.391 73.3599 318.644 77.0894 318.46C125.308 225.253 187.125 161.378 262.538 126.834L268.439 127.788L281.828 129.951C260.149 212.191 303.664 406.419 246.594 557.068C193.853 561.381 129.429 511.035 53.5116 530.673C68.1287 468.653 134.39 403.726 167.358 341.411L167.358 341.411Z" fill="#89C5CC"/>
<path fill-rule="evenodd" clip-rule="evenodd" d="M268.275 134.269L254.061 162.484L267.138 187.52L248.193 202.412L272.214 281.217L239.737 201.177L258.431 186.095L246.807 163.959L268.275 134.269Z" fill="black" fill-opacity="0.1"/>
<path fill-rule="evenodd" clip-rule="evenodd" d="M259.899 306.654C256.277 306.054 253.967 302.234 254.738 298.122C255.51 294.009 259.071 291.162 262.692 291.762C266.314 292.362 268.624 296.183 267.853 300.295C267.081 304.407 263.52 307.255 259.899 306.654ZM260.063 350.828C256.442 350.228 254.131 346.408 254.903 342.295C255.674 338.183 259.236 335.336 262.857 335.936C266.478 336.536 268.789 340.356 268.017 344.469C267.246 348.581 263.685 351.428 260.063 350.828ZM253.671 393.915C250.049 393.315 247.739 389.494 248.51 385.382C249.282 381.27 252.843 378.422 256.464 379.023C260.086 379.623 262.396 383.443 261.625 387.555C260.853 391.668 257.292 394.515 253.671 393.915Z" fill="black" fill-opacity="0.4"/>
</svg>
