<svg width="118" height="142" viewBox="0 0 118 142" fill="none" xmlns="http://www.w3.org/2000/svg">
<path fill-rule="evenodd" clip-rule="evenodd" d="M45.6573 75.0687C35.8788 65.6857 29.2605 54.1868 30.3664 41.3019C33.5529 4.177 96.7711 12.344 109.068 31.0815C121.366 49.819 119.904 97.3481 104.011 100.697C97.6732 102.033 84.171 98.761 70.429 91.99L79.0546 141.875H28.1238L45.6573 75.0687Z" fill="#B28B67"/>
<mask id="mask0" mask-type="alpha" maskUnits="userSpaceOnUse" x="0" y="0" width="111" height="92">
<path d="M107.528 20.5286C108.446 18.3676 114.698 11.6725 103.562 5.29413C101.561 4.14791 98.2554 5.29037 95.391 4.56691C93.2359 4.02257 92.5093 1.56468 90.0388 1.13588C87.4759 0.691048 84.6838 2.70718 81.7871 2.53001C80.0122 2.42145 77.2737 0.160328 75.4259 0.0385351C72.1274 -0.178886 69.1308 2.36632 65.9094 2.53001C64.0418 2.62491 61.875 0.168486 60.0214 0.0385351C55.5102 -0.277746 51.4016 1.44149 47.4262 1.96287C43.7623 2.4434 42.0586 8.58123 39.3598 10.0318C30.8908 14.5839 24.2554 15.8567 17.3831 20.5286C9.21365 26.0824 7.65008 30.2144 4.26569 33.9153C0.881301 37.6162 -1.20923 50.6554 0.764443 59.012C1.92867 63.9413 4.96263 77.4035 11.7403 82.6156C21.0172 89.7496 39.8903 91.8633 41.5657 90.9115C49.325 86.5033 66.7185 62.1215 79.0545 53.5045C88.1259 47.168 101.845 33.9153 107.528 20.5286Z" fill="white"/>
</mask>
<g mask="url(#mask0)">
<path d="M107.528 20.5286C108.446 18.3676 114.698 11.6725 103.562 5.29413C101.561 4.14791 98.2554 5.29037 95.391 4.56691C93.2359 4.02257 92.5093 1.56468 90.0388 1.13588C87.4759 0.691048 84.6838 2.70718 81.7871 2.53001C80.0122 2.42145 77.2737 0.160328 75.4259 0.0385351C72.1274 -0.178886 69.1308 2.36632 65.9094 2.53001C64.0418 2.62491 61.875 0.168486 60.0214 0.0385351C55.5102 -0.277746 51.4016 1.44149 47.4262 1.96287C43.7623 2.4434 42.0586 8.58123 39.3598 10.0318C30.8908 14.5839 24.2554 15.8567 17.3831 20.5286C9.21365 26.0824 7.65008 30.2144 4.26569 33.9153C0.881301 37.6162 -1.20923 50.6554 0.764443 59.012C1.92867 63.9413 4.96263 77.4035 11.7403 82.6156C21.0172 89.7496 39.8903 91.8633 41.5657 90.9115C49.325 86.5033 66.7185 62.1215 79.0545 53.5045C88.1259 47.168 101.845 33.9153 107.528 20.5286Z" fill="#FF9B21"/>
<path fill-rule="evenodd" clip-rule="evenodd" d="M45.0063 72.2097C50.5782 62.1224 57.7429 49.1781 64.2235 35.9002C68.8706 26.3789 73.8143 14.1863 79.0545 -0.677358H85.3614C75.4257 22.4702 67.9521 38.635 62.9406 47.8169C54.8792 62.5867 49.0869 73.8033 44.4722 81.3314C52.2031 72.0674 64.093 56.9561 76.7682 36.6352C81.574 28.9305 87.2317 17.1336 93.7412 1.24449L99.6111 3.29727C89.7559 23.4081 82.1416 37.4325 76.7682 45.3704C59.2534 71.2444 42.5291 86.8558 36.6833 91.2864C35.6718 92.053 35.3337 92.2316 35.5762 91.8395C35.4958 91.8292 35.4368 91.7897 35.3984 91.7219C34.9872 92.2302 34.578 92.6758 34.1686 93.0586C28.2735 98.5702 43.3577 67.8458 54.4757 35.6225C57.8799 25.7562 61.2375 13.2081 64.5484 -2.022L70.8208 -2.56091C63.8994 21.3089 58.5337 38.0237 54.7237 47.5835C50.8605 57.2768 47.7134 65.489 45.0063 72.2097Z" fill="black" fill-opacity="0.2"/>
</g>
</svg>
