<svg width="244" height="331" viewBox="0 0 244 331" fill="none" xmlns="http://www.w3.org/2000/svg">
<path fill-rule="evenodd" clip-rule="evenodd" d="M162.051 49.3298C166.815 44.0453 170.039 37.5691 169.501 30.3124C167.948 9.40367 137.148 14.0033 131.157 24.5562C125.166 35.1092 125.878 61.8775 133.621 63.7636C136.709 64.5158 143.287 62.6733 149.982 58.8598L145.78 86.9547H170.593L162.051 49.3298Z" fill="#B28B67"/>
<path fill-rule="evenodd" clip-rule="evenodd" d="M180.319 23.3524C181.12 22.6019 181.557 21.5306 181.935 20.5134C182.328 19.4568 182.71 18.3892 182.971 17.2894C183.492 15.0918 183.497 12.5646 181.838 10.8582C180.507 9.48987 178.511 8.87613 176.668 8.74275C175.441 8.65379 174.18 8.81624 173.003 9.18179C171.836 9.54441 170.83 10.2671 169.698 10.7157C169.655 8.34755 169.225 5.86963 167.954 3.84758C166.731 1.90203 164.78 0.810264 162.559 0.521426C160.279 0.225006 158.027 0.729183 155.986 1.77225C155.475 2.03347 154.969 2.30714 154.484 2.61688C154.079 2.87626 153.657 3.18863 153.181 3.29411C152.65 3.41184 152.387 3.12223 152.042 2.75639C151.638 2.32746 151.183 1.94967 150.701 1.61475C148.569 0.134106 145.772 -0.474679 143.302 0.412833C142.165 0.821735 141.058 1.51617 140.286 2.4731C139.598 3.3261 139.107 4.67919 138.158 5.27349C137.755 5.52577 137.47 5.19153 137.103 4.9445C136.552 4.57332 136.026 4.16373 135.468 3.80266C134.685 3.29538 133.836 2.91593 132.928 2.71731C131.598 2.42653 129.76 2.49468 129.38 4.14079C129.237 4.7591 129.346 5.42039 129.392 6.04336C129.456 6.89879 129.522 7.75393 129.6 8.6081C129.66 9.25664 129.736 9.88303 129.865 10.5199C129.934 10.8594 130.15 11.4923 129.996 11.8323C129.804 12.2572 128.915 12.0156 128.536 12.0304C127.786 12.0597 127.033 12.1839 126.34 12.4866C125.802 12.7213 125.237 13.0665 125.011 13.6484C124.871 14.0059 124.908 14.3731 124.974 14.7409C125.053 15.1822 124.963 15.4163 124.904 15.8617C123.897 15.3931 120.407 14.352 119.968 16.0574C119.822 16.6253 120.155 17.2669 120.409 17.7458C120.854 18.5858 121.438 19.3535 122.035 20.0857C123.28 21.6131 124.767 22.9305 126.367 24.0572C124.493 24.8445 124.004 27.167 125.626 28.5507C126.343 29.1616 127.306 29.2976 128.21 29.2586C128.541 29.2443 129.017 29.1241 129.278 29.1786C129.418 29.2078 129.568 29.32 129.762 29.3326C131.037 29.4151 132.477 29.1247 133.724 28.8572C135.946 28.3807 138.049 27.386 139.766 25.8712C140.207 25.4826 140.571 25.2589 141.164 25.2646C141.684 25.2696 142.194 25.4042 142.713 25.4167C144.087 25.4498 145.325 24.8152 146.601 24.3928C146.679 26.0213 147.17 27.8149 147.875 29.28C148.45 30.4747 149.65 30.6483 150.83 30.7531C154.602 31.0885 158.387 30.7142 162.164 30.7192C158.508 31.5001 154.73 31.822 151.106 32.741C149.468 33.1564 150.719 34.1996 151.419 34.9228C152.573 36.1138 153.43 37.5894 154.025 39.1439C155.814 36.9407 158.975 35.489 161.776 36.1659C164.87 36.9136 167.05 40.8684 165.071 43.7115C163.922 45.362 161.847 45.9992 160.121 46.7083C161.467 48.0314 161.793 49.9856 162.604 51.6318C163.004 52.4435 163.565 53.3614 164.459 53.6443C164.79 53.749 165.177 53.7579 165.438 54.0127C165.762 54.3282 165.839 54.6809 166.251 54.9521C167.899 56.0343 170.472 55.9509 171.932 54.5386C173.252 53.2613 172.909 51.2402 171.806 49.9452C173.561 49.2538 176.759 48.3645 176.062 45.7802C179.865 45.5416 189.1 39.7121 183.995 35.4524C186.797 33.9561 189.371 30.2993 187.571 27.0758C186.186 24.5936 182.963 23.4841 180.319 23.3524Z" fill="#191847"/>
<path fill-rule="evenodd" clip-rule="evenodd" d="M215.441 209.082H135.568L125.102 330.233H244L215.441 209.082Z" fill="#C5CFD6"/>
<path fill-rule="evenodd" clip-rule="evenodd" d="M215.441 209.082H190.875L176.172 330.233H244L215.441 209.082Z" fill="black" fill-opacity="0.1"/>
<path fill-rule="evenodd" clip-rule="evenodd" d="M44.5061 188.327C35.9901 183.494 21.7023 189.703 21.7121 196.614C21.7414 217.292 41.7111 314.748 42.7537 320.909C43.7964 327.07 54.9657 328.697 55.6161 320.929C56.6511 308.569 58.5738 265.782 56.65 245.977C55.8559 237.802 55.0007 230.017 54.1587 223.071C64.6376 240.953 80.8436 266.557 102.777 299.881L114.684 294.74C105.334 265.629 97.6666 245.077 91.6828 233.084C81.437 212.551 71.8299 194.966 67.7866 188.772C61.4265 179.029 50.3557 182.428 44.5061 188.327Z" fill="#B28B67"/>
<path fill-rule="evenodd" clip-rule="evenodd" d="M113.833 278.573L72.9651 187.087C63.1748 172.204 35.7253 190.115 39.064 198.747C46.644 218.344 85.1937 281.786 87.452 287.625L113.833 278.573Z" fill="#1F28CF"/>
<path fill-rule="evenodd" clip-rule="evenodd" d="M115.336 289.327C118.023 291.527 119.79 293.303 120.638 294.654C121.669 296.297 122.91 298.835 124.362 302.267C122.529 303.24 106.063 311.988 74.9609 328.512C70.907 324.779 70.1525 322.002 72.6975 320.18C75.2425 318.359 77.3407 316.82 78.9922 315.564L95.2718 292.717C95.5851 292.277 96.2325 292.209 96.7178 292.564C96.7261 292.57 96.7344 292.576 96.7425 292.582L100.555 295.523C103.896 295.405 106.366 294.921 107.967 294.071C109.268 293.38 110.721 291.879 112.327 289.569L112.327 289.569C112.943 288.682 114.235 288.531 115.212 289.232C115.254 289.262 115.295 289.294 115.336 289.327Z" fill="#E4E4E4"/>
<path fill-rule="evenodd" clip-rule="evenodd" d="M58.2312 315.97C59.3878 318.888 59.9662 321.071 59.9662 322.52C59.9662 324.282 59.6556 326.853 59.0344 330.233C56.8715 330.233 37.4336 330.233 0.720619 330.233C-0.79475 325.499 0.0800056 322.943 3.34489 322.566C6.60978 322.188 9.32197 321.847 11.4815 321.543L38.5852 310.125C39.1067 309.905 39.718 310.127 39.9505 310.619C39.9544 310.628 39.9583 310.636 39.962 310.645L41.7042 314.639C44.7266 315.971 47.1827 316.637 49.0723 316.637C50.6076 316.637 52.7279 316.052 55.4331 314.88L55.4331 314.88C56.4712 314.43 57.6986 314.861 58.1745 315.842C58.195 315.884 58.2139 315.927 58.2312 315.97Z" fill="#E4E4E4"/>
<path fill-rule="evenodd" clip-rule="evenodd" d="M18.8476 203.644C18.8476 229.6 31.8921 290.146 31.9003 295.862L59.9662 295.882C55.8582 241.857 54.4015 214.554 55.5962 213.972C57.3882 213.099 129.056 220.734 150.55 220.734C181.545 220.734 194.366 202.263 195.407 168.048H134.007C121.506 169.312 56.297 181.741 32.0797 186.014C21.7119 187.843 18.8476 196.493 18.8476 203.644Z" fill="#2B44FF"/>
<path fill-rule="evenodd" clip-rule="evenodd" d="M124.442 107.18L88.5556 88.6062C82.588 81.9094 76.7081 76.7084 70.9161 73.0032C69.1463 72.305 66.0513 71.8823 68.9457 76.737C71.8401 81.5917 74.6536 86.8211 73.179 88.3168C71.7044 89.8124 68.0274 87.7231 66.2682 90.208C65.0954 91.8647 71.3773 94.4818 85.1139 98.0592L111.19 120.621L124.442 107.18ZM68.2373 122.851L52.4739 114.668C50.2621 106.714 47.6181 102.713 44.542 102.663C42.179 101.624 46.2943 111.674 41.8146 110.802C37.3349 109.931 26.4013 102.246 24.5174 103.806C21.7303 106.115 24.2155 113.202 27.1436 116.728C32.6162 123.318 37.1474 125.571 48.3468 128.522C54.2024 130.065 60.5333 133.157 67.3396 137.799L68.2373 122.851Z" fill="#997659"/>
<path fill-rule="evenodd" clip-rule="evenodd" d="M141.919 103.042C129.349 102.916 112.588 100.408 94.7027 89.6795L87.6789 104.481C100.016 116.051 117.362 125.557 132.529 125.154C144.482 124.837 150.591 111.174 141.919 103.042Z" fill="#2026A2"/>
<path fill-rule="evenodd" clip-rule="evenodd" d="M124.994 126.779C111.65 129.924 89.2721 126.216 57.8612 115.653C50.07 130.885 46.4684 141.744 47.0562 148.231C74.0021 161.532 97.097 167.462 116.124 167.854C115.52 178.522 116.894 188.674 121.51 197.95C131 217.02 186.572 199.359 205.257 202.835C216.958 166.925 194.334 152.331 194.316 129.354C194.296 104.192 172.915 65.4604 169.769 65.4604H141.082C139.499 84.6775 131.532 105.856 124.994 126.779Z" fill="#1F28CF"/>
</svg>
