<svg width="507" height="357" viewBox="0 0 507 357" fill="none" xmlns="http://www.w3.org/2000/svg">
<g clip-path="url(#clip0)">
<path opacity="0.1" d="M439.353 357C455.446 357 468.492 353.538 468.492 349.268C468.492 344.997 455.446 341.535 439.353 341.535C423.261 341.535 410.215 344.997 410.215 349.268C410.215 353.538 423.261 357 439.353 357Z" fill="#F9A826"/>
<path opacity="0.1" d="M487.409 316.258C476.323 325.451 460.547 329.256 445.29 331.659L442.722 332.05C426.787 334.426 410.675 335.691 394.507 336.46C385.857 336.879 377.206 337.175 368.556 337.439L361.777 337.639C352.974 337.9 344.156 338.156 335.32 338.408C326.669 338.654 318.019 338.885 309.368 339.1C298.29 339.37 287.211 339.595 276.132 339.774C267.482 339.91 258.831 340.004 250.181 340.056C239.099 340.12 228.021 340.098 216.945 339.992C208.288 339.904 199.638 339.752 190.993 339.537C179.909 339.252 168.83 338.835 157.757 338.285C150.242 337.918 142.731 337.477 135.225 336.961L131.806 336.72C99.5852 334.399 66.7863 330.234 38.5902 317.072L37.8299 316.713C37.452 316.535 37.0741 316.358 36.6962 316.171C31.5192 313.697 26.5603 310.791 21.8721 307.483C13.5357 301.539 6.65177 294.284 3.01402 285.678C-2.68619 272.179 0.327814 257.006 6.83844 243.807C13.3491 230.609 23.1241 218.694 31.5788 206.264C34.0556 202.623 36.4049 198.846 38.5902 194.973C52.2489 170.683 59.0236 142.575 44.7048 119.168C42.8148 116.184 40.774 113.298 38.5902 110.521C35.0982 105.97 31.5469 101.419 29.1476 96.3805C23.5521 84.6566 24.754 71.4718 26.7937 58.9469C29.5255 42.2941 34.5336 24.3578 50.1864 13.9538C66.4266 3.14929 89.4778 3.69543 109.633 7.58215C140.971 13.5852 169.895 26.151 199.093 37.4835C228.291 48.8159 258.877 59.179 290.979 60.2941C297.875 60.53 304.78 60.279 311.64 59.5431C320.787 58.6036 329.808 56.7044 338.557 53.8769C351.191 49.7171 362.687 43.4592 371.21 34.7619C389.49 16.1703 423.842 14.7639 448.609 25.9917C472.243 36.7052 487.527 59.3793 486.398 82.026C485.114 107.235 466.229 127.961 448.923 149.22C446.825 151.796 444.753 154.381 442.736 156.984C441.61 158.437 440.505 159.894 439.422 161.353C437.523 163.929 435.688 166.519 433.958 169.14C425.116 182.58 418.865 198.723 424.953 213.232C428.367 221.356 434.882 227.555 442.736 232.966C460.333 245.086 484.623 253.242 495.55 270.209C504.965 284.832 501.477 304.57 487.409 316.258Z" fill="#F9A826"/>
<g opacity="0.1">
<path opacity="0.1" d="M252.913 250.02C252.931 250.447 252.963 250.866 253.008 251.276C256.55 249.865 260.027 248.348 263.439 246.725C265.26 246.483 266.952 245.656 268.26 244.367C269.258 243.866 270.25 243.343 271.234 242.82C271.011 242.349 270.759 241.893 270.478 241.454C268.561 238.428 265.647 236.534 262.437 236.639C259.228 236.744 256.45 238.824 254.734 241.959C253.417 244.435 252.788 247.218 252.913 250.02Z" fill="#3F3D56"/>
<path opacity="0.1" d="M252.389 234.104C252.458 236.893 253.267 239.613 254.734 241.987C256.655 245.004 259.569 246.897 262.779 246.793C263.002 246.793 263.234 246.761 263.439 246.743C265.26 246.501 266.952 245.674 268.26 244.385C269.148 243.541 269.897 242.561 270.478 241.482C271.762 239.004 272.389 236.238 272.298 233.449C272.207 230.66 271.402 227.941 269.959 225.552C268.037 222.526 265.123 220.633 261.914 220.737C258.704 220.842 255.931 222.922 254.215 226.058C252.899 228.529 252.269 231.307 252.389 234.104Z" fill="#3F3D56"/>
<path opacity="0.1" d="M262.254 230.878C267.75 230.698 272.014 224.721 271.778 217.529C271.542 210.336 266.895 204.652 261.398 204.832C255.902 205.013 251.638 210.99 251.874 218.182C252.11 225.374 256.757 231.059 262.254 230.878Z" fill="#3F3D56"/>
<path opacity="0.1" d="M261.732 214.966C267.228 214.786 271.492 208.809 271.256 201.616C271.019 194.424 266.372 188.739 260.876 188.92C255.38 189.1 251.116 195.077 251.352 202.269C251.588 209.462 256.235 215.146 261.732 214.966Z" fill="#3F3D56"/>
<path opacity="0.1" d="M261.209 199.049C266.706 198.868 270.97 192.891 270.734 185.699C270.497 178.507 265.85 172.822 260.354 173.003C254.858 173.183 250.594 179.16 250.83 186.352C251.066 193.545 255.713 199.229 261.209 199.049Z" fill="#3F3D56"/>
<path opacity="0.1" d="M294.476 75.9002C295.779 74.1259 296.956 72.263 298 70.325L271.712 66.8934L299.994 66.1743C302.513 60.1868 303.783 53.7484 303.727 47.2531C303.671 40.7578 302.289 34.3424 299.666 28.3994L262.374 49.3122L296.52 22.4601C293.044 16.9316 288.468 12.176 283.077 8.48807C277.686 4.80017 271.595 2.25866 265.181 1.02115C258.767 -0.216361 252.167 -0.123492 245.79 1.294C239.414 2.71149 233.396 5.42338 228.112 9.26149C222.827 13.0996 218.387 17.9821 215.067 23.6063C211.748 29.2304 209.62 35.4762 208.815 41.9564C208.01 48.4367 208.545 55.0131 210.388 61.2779C212.231 67.5428 215.341 73.3625 219.526 78.3761C217.497 81.1385 215.771 84.1108 214.377 87.2418L248.892 103.754L212.306 92.8034C210.011 100.395 209.647 108.439 211.246 116.207C212.845 123.975 216.356 131.221 221.461 137.291C216.165 144.502 213.004 153.057 212.342 161.978C211.68 170.9 213.542 179.827 217.717 187.74C221.891 195.653 228.208 202.233 235.947 206.726C243.685 211.219 252.533 213.445 261.477 213.149C270.421 212.853 279.102 210.046 286.526 205.051C293.95 200.056 299.818 193.073 303.459 184.902C307.101 176.73 308.368 167.699 307.117 158.841C305.866 149.983 302.146 141.655 296.384 134.811C302.717 126.199 305.972 115.709 305.626 105.026C305.28 94.3423 301.353 84.085 294.476 75.9002Z" fill="#F9A826"/>
<path opacity="0.1" d="M210.293 108.15C210.626 118.84 214.561 129.104 221.461 137.278C216.163 144.487 213.001 153.042 212.337 161.963C211.674 170.884 213.534 179.812 217.707 187.726C221.88 195.64 228.196 202.22 235.934 206.715C243.672 211.21 252.518 213.437 261.463 213.143C270.407 212.848 279.088 210.044 286.513 205.05C293.938 200.056 299.808 193.074 303.45 184.903C307.093 176.732 308.362 167.701 307.113 158.843C305.863 149.984 302.145 141.656 296.384 134.811C302.507 126.5 210.12 102.802 210.293 108.15Z" fill="black"/>
</g>
<g opacity="0.1">
<path opacity="0.1" d="M148.506 333.857C148.506 334.158 148.474 334.458 148.438 334.768C145.918 333.766 143.443 332.694 141.012 331.55C139.717 331.381 138.512 330.794 137.579 329.88C136.869 329.518 136.163 329.151 135.462 328.778C135.62 328.445 135.8 328.123 135.999 327.813C137.365 325.656 139.432 324.309 141.718 324.382C144.003 324.455 145.979 325.929 147.181 328.159C148.122 329.907 148.58 331.874 148.506 333.857Z" fill="#3F3D56"/>
<path opacity="0.1" d="M148.861 322.529C148.816 324.514 148.244 326.45 147.204 328.141C145.838 330.289 143.766 331.641 141.485 331.568L141.03 331.532C139.735 331.362 138.53 330.776 137.597 329.861C136.964 329.261 136.431 328.564 136.017 327.795C135.104 326.034 134.657 324.068 134.72 322.085C134.782 320.102 135.351 318.168 136.373 316.467C137.738 314.31 139.81 312.963 142.091 313.036C144.372 313.108 146.352 314.583 147.577 316.813C148.507 318.57 148.951 320.544 148.861 322.529Z" fill="#3F3D56"/>
<path opacity="0.1" d="M149.229 311.222C149.391 306.105 146.352 301.856 142.441 301.733C138.53 301.609 135.229 305.658 135.067 310.775C134.906 315.893 137.945 320.141 141.855 320.265C145.766 320.388 149.067 316.34 149.229 311.222Z" fill="#3F3D56"/>
<path opacity="0.1" d="M149.583 299.896C149.744 294.779 146.705 290.53 142.795 290.406C138.884 290.283 135.583 294.331 135.421 299.449C135.259 304.566 138.298 308.815 142.209 308.939C146.12 309.062 149.421 305.014 149.583 299.896Z" fill="#3F3D56"/>
<path opacity="0.1" d="M149.941 288.566C150.103 283.448 147.064 279.199 143.153 279.076C139.243 278.952 135.941 283.001 135.78 288.118C135.618 293.236 138.657 297.485 142.567 297.608C146.478 297.732 149.779 293.683 149.941 288.566Z" fill="#3F3D56"/>
<path opacity="0.1" d="M118.789 209.983C117.861 208.72 117.02 207.396 116.272 206.019L134.975 203.534L114.847 203.079C113.048 198.819 112.137 194.237 112.172 189.614C112.206 184.99 113.185 180.423 115.047 176.19L141.604 191.041L117.282 171.949C119.744 167.996 122.992 164.592 126.827 161.949C130.661 159.306 134.998 157.48 139.569 156.585C144.139 155.69 148.845 155.745 153.393 156.746C157.942 157.748 162.235 159.674 166.007 162.406C169.778 165.138 172.947 168.617 175.315 172.625C177.683 176.634 179.201 181.087 179.773 185.708C180.346 190.328 179.961 195.017 178.642 199.482C177.323 203.947 175.099 208.093 172.108 211.662C173.557 213.627 174.788 215.741 175.782 217.97L151.233 229.749L177.262 221.921C178.9 227.323 179.166 233.048 178.036 238.578C176.905 244.108 174.414 249.27 170.788 253.597C174.565 258.723 176.823 264.808 177.304 271.156C177.785 277.504 176.469 283.86 173.507 289.495C170.545 295.131 166.056 299.82 160.554 303.026C155.051 306.232 148.758 307.826 142.392 307.625C136.026 307.424 129.846 305.436 124.557 301.89C119.268 298.343 115.084 293.38 112.484 287.568C109.884 281.757 108.972 275.331 109.853 269.026C110.733 262.721 113.371 256.79 117.464 251.913C112.951 245.788 110.628 238.325 110.868 230.721C111.108 223.118 113.898 215.815 118.789 209.987V209.983Z" fill="#F9A826"/>
<path opacity="0.1" d="M178.705 232.857C178.477 240.464 175.687 247.772 170.788 253.597C174.565 258.723 176.823 264.808 177.304 271.156C177.785 277.504 176.469 283.86 173.507 289.496C170.545 295.131 166.056 299.82 160.554 303.026C155.051 306.232 148.758 307.826 142.392 307.625C136.026 307.424 129.846 305.436 124.557 301.89C119.268 298.343 115.084 293.38 112.484 287.568C109.884 281.757 108.972 275.331 109.853 269.026C110.733 262.721 113.371 256.79 117.464 251.913C113.098 245.997 178.833 229.048 178.705 232.857Z" fill="black"/>
</g>
<g opacity="0.1">
<path opacity="0.1" d="M385.606 274.669C385.606 274.974 385.575 275.27 385.543 275.579C383.02 274.578 380.545 273.505 378.117 272.362C376.82 272.192 375.614 271.606 374.68 270.691C373.974 270.332 373.264 269.963 372.562 269.59C372.722 269.258 372.902 268.936 373.1 268.625C374.466 266.468 376.533 265.121 378.818 265.193C381.104 265.266 383.08 266.741 384.282 268.971C385.223 270.719 385.68 272.686 385.606 274.669Z" fill="#3F3D56"/>
<path opacity="0.1" d="M385.989 263.341C385.943 265.326 385.369 267.263 384.327 268.953C382.961 271.101 380.894 272.453 378.609 272.38L378.153 272.343C376.857 272.173 375.651 271.587 374.716 270.673C374.085 270.071 373.551 269.374 373.136 268.607C372.223 266.845 371.776 264.88 371.838 262.897C371.901 260.914 372.47 258.98 373.491 257.279C374.857 255.126 376.929 253.774 379.21 253.847C381.491 253.92 383.476 255.395 384.696 257.625C385.629 259.381 386.076 261.354 385.989 263.341Z" fill="#3F3D56"/>
<path opacity="0.1" d="M386.345 252.031C386.506 246.913 383.467 242.664 379.557 242.541C375.646 242.417 372.345 246.466 372.183 251.583C372.021 256.701 375.06 260.95 378.971 261.073C382.882 261.197 386.183 257.148 386.345 252.031Z" fill="#3F3D56"/>
<path opacity="0.1" d="M386.703 240.704C386.865 235.587 383.826 231.338 379.915 231.215C376.005 231.091 372.703 235.139 372.542 240.257C372.38 245.375 375.419 249.623 379.33 249.747C383.24 249.87 386.541 245.822 386.703 240.704Z" fill="#3F3D56"/>
<path opacity="0.1" d="M387.061 229.379C387.223 224.261 384.184 220.012 380.274 219.889C376.363 219.765 373.062 223.814 372.9 228.931C372.738 234.049 375.777 238.298 379.688 238.421C383.598 238.545 386.9 234.496 387.061 229.379Z" fill="#3F3D56"/>
<path opacity="0.1" d="M355.89 150.795C354.96 149.534 354.121 148.209 353.377 146.831L372.08 144.368L351.952 143.881C350.153 139.622 349.243 135.04 349.277 130.417C349.311 125.794 350.287 121.226 352.147 116.993L378.704 131.844L354.383 112.76C356.84 108.798 360.087 105.385 363.923 102.733C367.758 100.081 372.099 98.2472 376.674 97.3467C381.25 96.4461 385.962 96.4977 390.517 97.4983C395.072 98.499 399.371 100.427 403.147 103.162C406.924 105.898 410.096 109.382 412.465 113.397C414.835 117.412 416.351 121.872 416.92 126.499C417.489 131.126 417.097 135.82 415.771 140.289C414.444 144.758 412.21 148.906 409.209 152.474C410.656 154.438 411.886 156.553 412.878 158.782L388.329 170.56L414.358 162.732C415.999 168.133 416.266 173.858 415.135 179.388C414.005 184.919 411.513 190.08 407.884 194.404C411.661 199.529 413.92 205.613 414.402 211.961C414.883 218.309 413.568 224.664 410.606 230.3C407.645 235.935 403.157 240.624 397.655 243.83C392.153 247.036 385.86 248.63 379.494 248.429C373.129 248.228 366.949 246.24 361.661 242.693C356.372 239.147 352.189 234.184 349.59 228.372C346.99 222.561 346.079 216.135 346.96 209.831C347.842 203.526 350.48 197.597 354.574 192.72C350.06 186.595 347.737 179.132 347.977 171.528C348.218 163.925 351.008 156.623 355.899 150.795H355.89Z" fill="#F9A826"/>
<path opacity="0.1" d="M415.81 173.669C415.582 181.276 412.791 188.582 407.888 194.404C411.665 199.529 413.923 205.613 414.404 211.961C414.885 218.308 413.57 224.663 410.608 230.298C407.646 235.934 403.158 240.622 397.656 243.828C392.155 247.033 385.862 248.627 379.497 248.426C373.132 248.225 366.952 246.237 361.664 242.691C356.376 239.145 352.193 234.182 349.593 228.371C346.993 222.56 346.081 216.135 346.962 209.831C347.843 203.526 350.481 197.597 354.574 192.72C350.203 186.808 415.929 169.855 415.81 173.669Z" fill="black"/>
</g>
<path d="M88.0983 346.733C102.433 346.733 114.054 344.499 114.054 341.744C114.054 338.99 102.433 336.756 88.0983 336.756C73.7632 336.756 62.1423 338.99 62.1423 341.744C62.1423 344.499 73.7632 346.733 88.0983 346.733Z" fill="#F9A826"/>
<path d="M87.6658 343.578C89.3354 343.578 90.6889 341.808 90.6889 339.623C90.6889 337.439 89.3354 335.668 87.6658 335.668C85.9962 335.668 84.6427 337.439 84.6427 339.623C84.6427 341.808 85.9962 343.578 87.6658 343.578Z" fill="#3F3D56"/>
<path d="M87.6658 338.745C89.3354 338.745 90.6889 336.974 90.6889 334.79C90.6889 332.606 89.3354 330.835 87.6658 330.835C85.9962 330.835 84.6427 332.606 84.6427 334.79C84.6427 336.974 85.9962 338.745 87.6658 338.745Z" fill="#3F3D56"/>
<path d="M87.6658 333.912C89.3354 333.912 90.6889 332.141 90.6889 329.957C90.6889 327.772 89.3354 326.002 87.6658 326.002C85.9962 326.002 84.6427 327.772 84.6427 329.957C84.6427 332.141 85.9962 333.912 87.6658 333.912Z" fill="#3F3D56"/>
<path d="M87.6658 329.078C89.3354 329.078 90.6889 327.308 90.6889 325.123C90.6889 322.939 89.3354 321.168 87.6658 321.168C85.9962 321.168 84.6427 322.939 84.6427 325.123C84.6427 327.308 85.9962 329.078 87.6658 329.078Z" fill="#3F3D56"/>
<path d="M87.6658 324.245C89.3354 324.245 90.6889 322.474 90.6889 320.29C90.6889 318.106 89.3354 316.335 87.6658 316.335C85.9962 316.335 84.6427 318.106 84.6427 320.29C84.6427 322.474 85.9962 324.245 87.6658 324.245Z" fill="#3F3D56"/>
<path d="M87.6658 319.412C89.3354 319.412 90.6889 317.641 90.6889 315.457C90.6889 313.272 89.3354 311.502 87.6658 311.502C85.9962 311.502 84.6427 313.272 84.6427 315.457C84.6427 317.641 85.9962 319.412 87.6658 319.412Z" fill="#3F3D56"/>
<path d="M87.6658 314.578C89.3354 314.578 90.6889 312.808 90.6889 310.623C90.6889 308.439 89.3354 306.668 87.6658 306.668C85.9962 306.668 84.6427 308.439 84.6427 310.623C84.6427 312.808 85.9962 314.578 87.6658 314.578Z" fill="#3F3D56"/>
<path d="M98.9797 277.545C99.3917 277.019 99.7675 276.466 100.104 275.889L92.164 274.583L100.751 274.651C101.574 272.858 102.024 270.917 102.071 268.945C102.119 266.973 101.764 265.012 101.028 263.182L89.5051 269.158L100.132 261.334C99.1352 259.616 97.7957 258.12 96.1963 256.942C94.597 255.763 92.772 254.926 90.8351 254.483C88.8982 254.04 86.8908 254 84.9378 254.366C82.9848 254.732 81.1281 255.496 79.4832 256.61C77.8383 257.724 76.4405 259.165 75.3767 260.843C74.3129 262.52 73.6059 264.399 73.2998 266.361C72.9937 268.324 73.095 270.329 73.5973 272.25C74.0997 274.172 74.9924 275.97 76.2198 277.532C75.5777 278.35 75.0252 279.235 74.5717 280.171L84.8794 285.524L73.8887 281.837C73.1167 284.118 72.9255 286.554 73.3325 288.927C73.7395 291.3 74.7319 293.534 76.2198 295.427C74.5408 297.562 73.4967 300.126 73.2066 302.826C72.9166 305.526 73.3924 308.254 74.5796 310.696C75.7669 313.139 77.6178 315.198 79.9206 316.639C82.2234 318.08 84.8853 318.844 87.602 318.844C90.3188 318.844 92.9807 318.08 95.2835 316.639C97.5863 315.198 99.4372 313.139 100.624 310.696C101.812 308.254 102.288 305.526 101.997 302.826C101.707 300.126 100.663 297.562 98.9842 295.427C100.99 292.875 102.08 289.724 102.08 286.479C102.08 283.234 100.99 280.083 98.9842 277.532L98.9797 277.545Z" fill="#F9A826"/>
<path opacity="0.1" d="M73.1239 286.493C73.1185 289.739 74.2094 292.892 76.2198 295.441C74.5408 297.576 73.4966 300.14 73.2066 302.84C72.9166 305.54 73.3924 308.268 74.5796 310.71C75.7669 313.153 77.6177 315.212 79.9206 316.653C82.2234 318.094 84.8853 318.858 87.602 318.858C90.3187 318.858 92.9807 318.094 95.2835 316.653C97.5863 315.212 99.4371 313.153 100.624 310.71C101.812 308.268 102.287 305.54 101.997 302.84C101.707 300.14 100.663 297.576 98.9842 295.441C100.919 292.979 73.1239 284.868 73.1239 286.493Z" fill="black"/>
<path d="M157.757 235.392V338.249C150.242 337.882 142.731 337.44 135.225 336.925L131.806 336.683V235.392C131.806 234.865 131.91 234.343 132.112 233.856C132.313 233.369 132.609 232.926 132.982 232.554C133.355 232.181 133.798 231.885 134.285 231.683C134.772 231.482 135.294 231.378 135.822 231.378H153.742C154.269 231.378 154.791 231.482 155.278 231.683C155.766 231.885 156.208 232.181 156.581 232.554C156.954 232.926 157.25 233.369 157.452 233.856C157.654 234.343 157.757 234.865 157.757 235.392Z" fill="#3F3D56"/>
<path d="M190.993 339.528V166.669C190.993 165.605 191.417 164.584 192.17 163.831C192.923 163.078 193.944 162.655 195.009 162.655H212.929C213.457 162.655 213.979 162.759 214.466 162.961C214.953 163.162 215.396 163.458 215.769 163.831C216.142 164.203 216.437 164.646 216.639 165.133C216.841 165.62 216.945 166.142 216.945 166.669V339.979L190.993 339.528Z" fill="#3F3D56"/>
<path d="M250.181 340.07V202.624C250.181 201.559 250.604 200.538 251.357 199.785C252.11 199.032 253.132 198.609 254.197 198.609H272.117C273.182 198.609 274.203 199.032 274.956 199.785C275.709 200.538 276.132 201.559 276.132 202.624V339.774L250.181 340.07Z" fill="#3F3D56"/>
<path d="M335.32 100.677V338.408C326.669 338.654 318.019 338.885 309.368 339.1V100.677C309.368 99.6124 309.792 98.5914 310.545 97.8386C311.298 97.0858 312.319 96.6628 313.384 96.6628H331.304C332.369 96.6628 333.391 97.0858 334.144 97.8386C334.897 98.5914 335.32 99.6124 335.32 100.677Z" fill="#3F3D56"/>
<path d="M394.507 148.464V336.429C385.857 336.847 377.206 337.143 368.556 337.407V148.464C368.556 147.4 368.979 146.379 369.732 145.626C370.485 144.873 371.507 144.45 372.572 144.45H390.492C391.557 144.45 392.578 144.873 393.331 145.626C394.084 146.379 394.507 147.4 394.507 148.464Z" fill="#3F3D56"/>
<path d="M145.009 175.407L204.197 109.415L263.384 142.639L322.572 40.6921L381.759 89.3899" stroke="#3F3D56" stroke-width="7" stroke-miterlimit="10" stroke-linecap="round"/>
<path d="M144.782 188.151C151.822 188.151 157.53 182.445 157.53 175.407C157.53 168.369 151.822 162.664 144.782 162.664C137.741 162.664 132.034 168.369 132.034 175.407C132.034 182.445 137.741 188.151 144.782 188.151Z" fill="#F9A826"/>
<path d="M203.969 122.159C211.01 122.159 216.717 116.453 216.717 109.415C216.717 102.377 211.01 96.6719 203.969 96.6719C196.929 96.6719 191.221 102.377 191.221 109.415C191.221 116.453 196.929 122.159 203.969 122.159Z" fill="#F9A826"/>
<path d="M263.157 155.382C270.197 155.382 275.905 149.677 275.905 142.639C275.905 135.601 270.197 129.896 263.157 129.896C256.116 129.896 250.409 135.601 250.409 142.639C250.409 149.677 256.116 155.382 263.157 155.382Z" fill="#F9A826"/>
<path d="M322.344 53.4357C329.385 53.4357 335.092 47.7303 335.092 40.6923C335.092 33.6544 329.385 27.949 322.344 27.949C315.304 27.949 309.596 33.6544 309.596 40.6923C309.596 47.7303 315.304 53.4357 322.344 53.4357Z" fill="#F9A826"/>
<path d="M436.166 161.754C443.207 161.754 448.914 156.049 448.914 149.011C448.914 141.973 443.207 136.267 436.166 136.267C429.126 136.267 423.418 141.973 423.418 149.011C423.418 156.049 429.126 161.754 436.166 161.754Z" fill="#F9A826"/>
<path opacity="0.1" d="M106.392 330.312C111.089 330.312 114.897 329.668 114.897 328.874C114.897 328.079 111.089 327.436 106.392 327.436C101.695 327.436 97.887 328.079 97.887 328.874C97.887 329.668 101.695 330.312 106.392 330.312Z" fill="#F9A826"/>
<path d="M100.682 322.197C100.682 322.197 105.531 322.047 106.993 321.005C108.454 319.962 114.455 318.729 114.819 320.39C115.183 322.051 122.104 328.692 116.64 328.737C111.177 328.783 103.915 327.882 102.458 326.994C101.001 326.107 100.682 322.197 100.682 322.197Z" fill="#A8A8A8"/>
<path opacity="0.2" d="M116.727 328.155C111.263 328.2 104.006 327.304 102.545 326.416C101.434 325.738 100.992 323.312 100.842 322.193H100.682C100.682 322.193 100.988 326.102 102.449 326.99C103.91 327.877 111.154 328.778 116.631 328.733C118.211 328.733 118.757 328.159 118.726 327.326C118.507 327.832 117.906 328.146 116.727 328.155Z" fill="black"/>
<path opacity="0.1" d="M484.336 343.711C492.963 343.711 499.957 342.529 499.957 341.071C499.957 339.613 492.963 338.431 484.336 338.431C475.709 338.431 468.715 339.613 468.715 341.071C468.715 342.529 475.709 343.711 484.336 343.711Z" fill="#F9A826"/>
<path d="M473.86 328.805C473.86 328.805 482.77 328.532 485.456 326.621C488.142 324.709 499.16 322.429 499.825 325.492C500.489 328.555 513.219 340.739 503.157 340.821C493.096 340.902 479.783 339.255 477.101 337.635C474.42 336.015 473.86 328.805 473.86 328.805Z" fill="#A8A8A8"/>
<path opacity="0.2" d="M503.326 339.756C493.264 339.838 479.951 338.19 477.27 336.57C475.23 335.327 474.415 330.867 474.142 328.833H473.846C473.846 328.833 474.411 336.019 477.088 337.648C479.765 339.278 493.086 340.93 503.144 340.834C506.049 340.834 507.05 339.778 506.996 338.249C506.59 339.159 505.484 339.737 503.326 339.756Z" fill="black"/>
<path d="M386.813 156.825C386.898 157.622 387.214 158.377 387.724 158.996C388.384 159.742 389.372 160.083 390.26 160.53C392.557 161.705 394.312 163.722 395.158 166.159C396.675 170.583 396.87 175.262 398.801 179.531C400.731 183.8 402.999 187.9 404.665 192.274C405.612 194.754 406.368 197.335 407.756 199.592C408.429 200.703 409.286 201.689 410.292 202.51C410.188 204.112 410.147 205.696 410.156 207.298C410.463 207.291 410.767 207.363 411.04 207.507C411.312 207.65 411.544 207.86 411.713 208.117C412.05 208.636 412.282 209.215 412.396 209.823C413.019 212.404 412.25 215.153 412.81 217.747C414.349 224.963 413.876 232.463 411.444 239.429C410.82 241.195 410.037 247.039 410.702 248.791C413.179 248.54 415.373 250.061 417.691 251.066C417.878 252.439 417.766 253.837 417.363 255.162C416.53 257.561 416.534 260.169 416.548 262.704L416.662 281.482C416.662 283.862 416.694 286.274 417.29 288.582C417.968 291.181 419.393 293.829 419.348 296.515C419.225 302.295 421.957 307.802 421.738 313.536C421.697 314.637 421.547 315.73 421.442 316.822C421.173 319.732 421.247 322.663 421.661 325.556C422.489 331.318 424.679 336.984 424.133 342.777C424.097 343.169 423.965 343.688 423.596 343.838C424.051 344.352 424.534 344.862 425.025 345.349C424.926 345.515 424.791 345.656 424.629 345.763C424.091 346.044 423.497 346.199 422.89 346.218C422.178 346.237 421.487 346.461 420.9 346.864C420.474 347.273 420.184 347.804 420.072 348.384C419.91 348.958 419.875 349.559 419.969 350.147C420.064 350.735 420.285 351.295 420.618 351.789C421.025 352.3 421.556 352.698 422.162 352.945C424.265 353.855 426.678 353.195 428.873 352.531L437.468 349.927C437.993 349.818 438.477 349.566 438.866 349.199C439.044 348.989 439.162 348.734 439.208 348.462C441.106 348.917 443.191 348.357 445.126 347.779L453.722 345.171C454.247 345.065 454.732 344.812 455.12 344.443C455.275 344.255 455.386 344.035 455.447 343.799C455.507 343.563 455.515 343.317 455.471 343.078C455.534 343.05 455.598 343.032 455.662 343C456.317 342.705 457.028 342.127 456.868 341.43C456.754 340.975 456.299 340.711 456.103 340.292C456.011 340.02 455.992 339.729 456.048 339.447C456.104 339.165 456.233 338.902 456.422 338.686C456.759 338.231 457.214 337.853 457.524 337.375C458.516 335.855 457.843 333.857 457.469 332.078C456.663 328.277 457.41 324.309 456.9 320.458C456.727 319.161 456.413 317.887 456.163 316.599C455.632 313.555 455.281 310.482 455.111 307.396C454.783 302.991 453.558 298.649 454.259 294.28C454.6 291.716 454.745 289.129 454.692 286.543C454.742 284.895 454.67 283.246 454.478 281.609C454.3 280.39 453.986 279.193 453.85 277.968C453.739 276.592 453.715 275.211 453.777 273.831C453.84 270.757 453.556 267.685 452.93 264.674C452.019 260.537 450.308 256.578 449.579 252.432C449.825 252.486 450.071 252.541 450.308 252.605C450.335 249.419 447.544 242.492 446.51 239.47C446.359 239.1 446.267 238.708 446.237 238.309C446.3 237.783 446.396 237.262 446.524 236.748C446.656 235.647 446.069 234.6 445.909 233.499C445.847 232.724 445.904 231.944 446.078 231.187C446.811 227.113 447.721 223.072 448.632 219.035C449.029 217.573 449.166 216.053 449.037 214.543C448.931 213.743 448.999 212.93 449.234 212.158C449.47 211.386 449.869 210.674 450.403 210.069C450.803 209.7 451.144 209.272 451.414 208.799C451.565 208.394 451.633 207.962 451.614 207.53C451.596 205.658 451.32 203.797 450.795 202C451.596 200.548 451.892 198.764 452.124 197.08C452.634 193.362 453.144 189.625 453.126 185.871C453.166 183.868 452.89 181.871 452.306 179.954C451.88 178.77 451.359 177.623 450.749 176.522C448.354 171.912 446.064 167.06 443.041 162.837C442.131 161.554 442.704 159.783 442.768 158.199C442.836 156.288 442.08 154.454 441.338 152.697C440.96 151.616 440.379 150.616 439.626 149.752C439.372 149.472 439.063 149.247 438.719 149.091C438.374 148.934 438.001 148.85 437.623 148.842C437.195 148.894 436.782 149.038 436.414 149.263C436.045 149.489 435.73 149.791 435.488 150.148C434.937 150.898 434.541 151.749 434.321 152.653C434.102 153.557 434.063 154.495 434.209 155.414C434.511 157.253 435.313 158.974 436.526 160.388C437.112 161.1 437.783 161.738 438.525 162.286C439.277 164.677 440.036 167.067 440.801 169.454C442.003 173.255 443.205 177.073 444.899 180.669C445.395 181.711 445.941 182.771 446.001 183.923C446.064 185.165 445.545 186.348 445.131 187.518C444.258 189.956 443.764 192.513 443.665 195.1C443.532 195.159 443.404 195.229 443.282 195.31C441.848 196.247 441.398 198.291 439.904 199.128C439.035 199.615 437.978 199.583 437.004 199.806C436.918 199.806 436.831 199.852 436.74 199.879C436.704 199.697 436.667 199.52 436.644 199.333C436.63 199.217 436.63 199.099 436.644 198.983C438.966 197.707 440.916 195.85 442.304 193.594C442.596 193.176 442.822 192.716 442.973 192.229C443.096 191.645 443.119 191.045 443.041 190.454C442.965 188.48 442.683 186.52 442.199 184.605C441.713 182.681 440.65 180.952 439.153 179.649C438.406 179.048 437.546 178.598 436.804 177.992C435.356 176.823 434.363 175.093 432.706 174.224C431.651 173.711 430.448 173.59 429.312 173.883C428.177 174.177 427.183 174.866 426.51 175.826C426.289 176.27 425.979 176.664 425.599 176.982C425.309 177.119 425.027 177.271 424.752 177.437C424.251 177.838 424.224 178.607 424.388 179.23C424.699 180.512 424.873 181.822 424.907 183.14C423.438 184.864 422.628 187.053 422.623 189.318C422.618 191.582 423.418 193.775 424.88 195.505C424.88 196.352 424.88 197.198 424.848 198.045C424.848 198.204 424.848 198.368 424.816 198.527C424.291 198.345 423.821 198.031 423.45 197.617C422.94 196.98 422.849 196.042 422.225 195.519C421.777 195.223 421.265 195.036 420.732 194.973C419.406 194.672 418.163 194.083 417.09 193.248C416.247 192.597 415.373 191.764 414.39 191.573C412.693 188.391 410.712 185.369 408.471 182.544C407.903 181.875 407.385 181.164 406.923 180.418C405.944 178.712 405.653 176.704 405.034 174.834C403.304 169.591 398.987 165.386 397.936 159.961C397.553 157.994 396.306 156.283 395.45 154.472C394.872 153.248 394.234 151.955 393.078 151.254C391.589 150.344 389.531 150.763 388.293 151.987C387.693 152.627 387.248 153.396 386.992 154.234C386.735 155.073 386.674 155.959 386.813 156.825ZM440.869 341.007C440.331 341.288 439.737 341.443 439.13 341.462C438.824 341.494 438.52 341.543 438.22 341.608C438.106 340.652 438.042 339.683 437.969 338.741C437.728 335.65 437.245 332.583 436.767 329.52C436.266 326.334 436.03 322.848 434.946 319.789C433.202 314.81 431.436 309.681 431.659 304.406C431.709 303.209 431.859 302.021 431.923 300.829C432.069 297.875 431.654 294.858 432.378 291.986C432.702 290.68 433.252 289.433 433.462 288.104C433.595 286.904 433.611 285.693 433.507 284.49C433.308 280.314 433.656 276.129 434.541 272.043C435.388 273.149 435.665 274.578 435.907 275.948L437.614 285.205C438.629 290.698 439.526 296.524 442.217 301.412C441.839 303.173 441.466 305.053 442.09 306.737C442.358 307.465 442.8 308.102 443.073 308.839C443.528 310.063 443.465 311.411 443.601 312.708C443.897 315.438 445.026 318.124 444.198 320.759C443.345 323.476 442.791 326.278 442.545 329.115C442.5 329.904 442.408 330.689 442.272 331.468C442.126 332.169 441.889 332.833 441.757 333.552C441.575 334.561 441.62 335.598 441.889 336.588C442.094 337.136 442.219 337.711 442.263 338.294C442.263 338.877 441.548 339.296 440.974 339.387C441.143 339.605 441.325 339.815 441.511 340.019C441.402 340.406 441.178 340.75 440.869 341.007Z" fill="url(#paint0_linear)"/>
<path d="M422.89 346.259C422.178 346.278 421.487 346.502 420.9 346.905C420.472 347.31 420.183 347.838 420.072 348.416C419.91 348.985 419.876 349.582 419.97 350.166C420.064 350.749 420.286 351.305 420.618 351.793C421.025 352.304 421.557 352.7 422.162 352.945C424.265 353.855 426.678 353.191 428.873 352.531L437.468 349.946C437.992 349.838 438.476 349.588 438.866 349.222C439.103 348.903 439.234 348.519 439.24 348.122C439.247 347.725 439.129 347.336 438.903 347.01C438.441 346.368 437.811 345.865 437.081 345.558C434.409 344.257 431.395 343.961 428.458 343.906C427.366 343.906 426.287 343.642 425.544 344.484C425.153 344.939 425.226 345.426 424.634 345.813C424.093 346.089 423.497 346.241 422.89 346.259Z" fill="#3F3D56"/>
<path d="M439.13 341.535C438.419 341.556 437.728 341.78 437.141 342.181C436.714 342.586 436.424 343.115 436.312 343.692C436.151 344.262 436.116 344.859 436.21 345.444C436.305 346.028 436.526 346.584 436.858 347.074C437.267 347.581 437.798 347.976 438.402 348.221C440.51 349.131 442.918 348.471 445.113 347.811L453.709 345.221C454.233 345.114 454.716 344.864 455.106 344.498C455.343 344.18 455.473 343.796 455.48 343.4C455.486 343.004 455.368 342.616 455.143 342.29C454.68 341.649 454.05 341.146 453.322 340.839C450.644 339.537 447.63 339.237 444.694 339.182C443.601 339.182 442.527 338.923 441.78 339.765C441.388 340.22 441.461 340.702 440.869 341.089C440.331 341.369 439.736 341.521 439.13 341.535Z" fill="#3F3D56"/>
<path d="M431.659 248.281C436.725 247.772 441.82 247.629 446.907 247.853C447.242 247.85 447.576 247.902 447.894 248.008C449.014 248.463 449.188 249.929 449.292 251.126C449.748 255.986 451.869 260.515 452.935 265.275C453.56 268.268 453.844 271.321 453.781 274.378C453.72 275.743 453.744 277.111 453.854 278.474C453.991 279.689 454.309 280.881 454.482 282.092C454.675 283.718 454.746 285.357 454.696 286.994C454.749 289.56 454.604 292.127 454.264 294.671C453.563 299.009 454.788 303.319 455.115 307.706C455.279 310.775 455.624 313.831 456.149 316.858C456.399 318.137 456.713 319.403 456.886 320.691C457.396 324.518 456.65 328.459 457.456 332.237C457.829 334.003 458.503 335.987 457.51 337.498C457.201 337.953 456.745 338.34 456.408 338.8C456.219 339.014 456.09 339.275 456.034 339.556C455.978 339.836 455.997 340.126 456.09 340.397C456.285 340.811 456.741 341.084 456.855 341.526C457.032 342.222 456.304 342.791 455.648 343.087C450.708 345.317 444.339 343.747 441.006 339.473C441.58 339.382 442.281 338.968 442.294 338.386C442.251 337.806 442.125 337.236 441.921 336.693C441.653 335.711 441.608 334.681 441.789 333.68C441.921 332.979 442.158 332.314 442.304 331.609C442.44 330.835 442.531 330.054 442.577 329.27C442.823 326.45 443.377 323.667 444.229 320.968C445.058 318.351 443.929 315.702 443.633 312.972C443.496 311.679 443.556 310.346 443.105 309.126C442.832 308.407 442.39 307.761 442.121 307.042C441.498 305.362 441.871 303.496 442.249 301.748C439.558 296.892 438.661 291.103 437.646 285.646L435.939 276.453C435.684 275.088 435.406 273.672 434.573 272.571C433.688 276.63 433.34 280.787 433.539 284.936C433.642 286.132 433.627 287.335 433.494 288.527C433.284 289.847 432.733 291.09 432.41 292.382C431.704 295.236 432.119 298.23 431.955 301.166C431.891 302.354 431.741 303.533 431.691 304.72C431.468 309.963 433.234 315.061 434.978 320.008C436.048 323.044 436.285 326.493 436.799 329.67C437.254 332.715 437.76 335.76 438.001 338.832C438.224 341.653 438.324 344.707 440.082 346.924C438.475 347.966 436.817 349.026 434.937 349.386C432.746 349.728 430.504 349.294 428.599 348.157C426.706 347.025 425.014 345.587 423.591 343.902C423.96 343.774 424.092 343.237 424.128 342.85C424.675 337.088 422.485 331.472 421.656 325.738C421.242 322.865 421.169 319.953 421.438 317.063C421.542 315.976 421.693 314.888 421.734 313.796C421.952 308.102 419.207 302.618 419.307 296.92C419.352 294.248 417.941 291.618 417.249 289.037C416.653 286.761 416.634 284.349 416.621 281.983L416.507 263.323C416.507 260.801 416.507 258.216 417.322 255.836C418.323 252.969 417.176 249.678 417.003 246.647C421.734 248.146 426.714 248.701 431.659 248.281Z" fill="#696791"/>
<path d="M415.428 194.668C413.514 190.757 411.177 187.068 408.457 183.668C407.889 183.004 407.372 182.298 406.909 181.556C405.931 179.858 405.639 177.865 405.02 176.008C403.29 170.802 398.974 166.619 397.922 161.235C397.54 159.278 396.292 157.594 395.436 155.774C394.858 154.558 394.221 153.275 393.064 152.588C391.575 151.678 389.517 152.096 388.279 153.316C387.683 153.951 387.241 154.714 386.987 155.546C386.733 156.379 386.673 157.258 386.813 158.117C386.898 158.91 387.215 159.66 387.724 160.275C388.384 161.017 389.372 161.353 390.26 161.799C392.554 162.962 394.309 164.966 395.158 167.393C396.675 171.785 396.87 176.436 398.801 180.678C400.731 184.919 402.999 188.988 404.665 193.325C405.612 195.788 406.368 198.332 407.756 200.607C409.145 202.883 411.312 204.79 413.93 205.131C413.912 203.482 414.163 201.84 414.672 200.271C415.241 198.477 416.252 196.366 415.428 194.668Z" fill="#A0616A"/>
<path d="M443.615 198.072C443.498 194.854 444 191.644 445.094 188.615C445.513 187.454 446.005 186.276 445.964 185.042C445.905 183.895 445.359 182.844 444.862 181.806C443.15 178.234 441.948 174.447 440.765 170.67L438.488 163.547C437.746 163.003 437.075 162.368 436.489 161.658C435.276 160.256 434.474 158.545 434.172 156.716C434.027 155.803 434.065 154.871 434.285 153.974C434.505 153.077 434.901 152.233 435.451 151.491C435.694 151.134 436.01 150.834 436.378 150.609C436.747 150.385 437.159 150.242 437.587 150.189C437.965 150.198 438.337 150.283 438.682 150.439C439.026 150.595 439.335 150.82 439.59 151.099C440.341 151.956 440.922 152.948 441.302 154.021C442.044 155.769 442.8 157.589 442.732 159.483C442.668 161.057 442.08 162.814 443.005 164.093C446.028 168.289 448.318 173.109 450.713 177.692C451.324 178.784 451.844 179.924 452.27 181.101C452.855 183.008 453.131 184.996 453.089 186.99C453.089 190.718 452.598 194.431 452.088 198.127C451.764 200.443 451.341 202.965 449.588 204.499C447.767 202.168 445.937 199.893 443.615 198.072Z" fill="#A0616A"/>
<path d="M432.032 199.847C437.25 199.847 441.479 195.619 441.479 190.404C441.479 185.188 437.25 180.96 432.032 180.96C426.815 180.96 422.585 185.188 422.585 190.404C422.585 195.619 426.815 199.847 432.032 199.847Z" fill="#A0616A"/>
<path d="M436.608 200.348C436.836 202.055 437.751 203.584 438.643 205.059C439.18 205.969 439.868 206.938 440.919 207.038C438.182 208.474 435.307 209.63 432.337 210.488C431.328 210.827 430.27 210.998 429.205 210.993C428.303 210.926 427.419 210.699 426.596 210.324C424.795 209.54 423.196 208.358 421.92 206.866C420.643 205.375 419.721 203.613 419.225 201.713C420.401 201.745 421.578 201.655 422.735 201.445C423.396 201.394 424.013 201.091 424.456 200.598C424.72 200.137 424.843 199.609 424.811 199.078C424.857 197.504 424.861 195.924 424.811 194.35C427.133 194.202 429.461 194.489 431.677 195.196C432.588 195.492 433.498 195.847 434.409 196.079C434.982 196.225 436.562 196.079 436.986 196.411C437.682 196.88 436.449 199.187 436.608 200.348Z" fill="#A0616A"/>
<path d="M432.456 206.087C432.559 204.843 433.052 203.663 433.864 202.714C434.677 201.766 435.767 201.097 436.981 200.803C437.956 200.585 439.012 200.612 439.881 200.13C441.375 199.297 441.825 197.267 443.26 196.334C444.694 195.401 446.729 195.92 447.976 197.098C449.224 198.277 449.857 199.957 450.367 201.6C451.128 203.821 451.541 206.147 451.591 208.495C451.61 208.924 451.542 209.353 451.391 209.755C451.121 210.225 450.78 210.65 450.38 211.016C449.846 211.615 449.448 212.323 449.212 213.09C448.976 213.858 448.909 214.667 449.014 215.463C449.144 216.961 449.007 218.472 448.609 219.923C447.699 223.937 446.788 227.946 446.055 231.997C445.883 232.742 445.826 233.51 445.887 234.273C446.028 235.369 446.633 236.407 446.501 237.504C446.372 238.015 446.277 238.533 446.214 239.056C446.244 239.452 446.336 239.84 446.488 240.207C447.521 243.207 450.312 250.079 450.285 253.256C445.436 252.013 438.288 251.736 433.28 251.713C431.902 251.698 430.525 251.759 429.155 251.895C425.863 252.25 422.494 253.21 419.302 252.323C416.338 251.499 413.716 249.137 410.652 249.433C409.987 247.694 410.77 241.891 411.394 240.135C413.826 233.217 414.298 225.763 412.76 218.594C412.2 216.018 412.969 213.282 412.346 210.725C412.232 210.12 412 209.543 411.663 209.027C411.493 208.771 411.261 208.562 410.989 208.42C410.717 208.277 410.413 208.206 410.106 208.212C410.049 204.098 410.43 199.99 411.244 195.956C411.544 194.522 412.154 192.829 413.625 192.584C414.927 192.361 416.02 193.462 417.067 194.268C418.141 195.098 419.384 195.683 420.709 195.979C421.243 196.042 421.754 196.229 422.203 196.525C422.826 197.044 422.917 197.977 423.427 198.609C424.338 199.743 426.373 199.647 427.02 200.953C427.161 201.342 427.275 201.741 427.361 202.146C427.667 202.922 428.188 203.595 428.863 204.085C429.878 205.038 431.112 205.725 432.456 206.087Z" fill="#F86D70"/>
<path d="M424.356 180.364C424.192 179.74 424.219 178.998 424.72 178.58C424.971 178.384 425.299 178.311 425.567 178.124C425.946 177.806 426.256 177.415 426.478 176.973C427.157 176.023 428.151 175.343 429.284 175.056C430.417 174.769 431.614 174.891 432.665 175.403C434.309 176.263 435.301 177.983 436.763 179.144C437.505 179.745 438.365 180.191 439.112 180.791C440.607 182.083 441.67 183.802 442.158 185.716C442.642 187.617 442.924 189.563 443 191.523C443.078 192.111 443.055 192.709 442.932 193.289C442.78 193.776 442.555 194.236 442.262 194.654C440.76 196.93 438.78 198.996 436.298 200.17C433.817 201.345 430.798 201.536 428.349 200.307C428.102 200.207 427.89 200.038 427.739 199.82C427.6 199.488 427.566 199.121 427.643 198.769C427.776 197.378 427.501 195.978 426.851 194.741C426.396 193.831 425.713 193.048 425.349 192.106C425.01 191.051 424.865 189.944 424.921 188.838C424.88 185.975 425.075 183.122 424.356 180.364Z" fill="#2D293D"/>
</g>
<defs>
<linearGradient id="paint0_linear" x1="458.029" y1="251.116" x2="386.754" y2="251.116" gradientUnits="userSpaceOnUse">
<stop stop-color="#808080" stop-opacity="0.25"/>
<stop offset="0.54" stop-color="#808080" stop-opacity="0.12"/>
<stop offset="1" stop-color="#808080" stop-opacity="0.1"/>
</linearGradient>
<clipPath id="clip0">
<rect width="507" height="357" fill="white"/>
</clipPath>
</defs>
</svg>
