<svg width="1231" height="908" viewBox="0 0 1231 908" fill="none" xmlns="http://www.w3.org/2000/svg">
<path d="M1231 336.219H713.565V351.415H1231V336.219Z" fill="#E6E6E6"/>
<path d="M887.423 209.132H756.34V340.364H887.423V209.132Z" fill="#E6E6E6"/>
<path d="M861.207 235.378H782.557V314.117H861.207V235.378Z" fill="#CCCCCC"/>
<path d="M1083.36 209.132H1050.24V340.364H1083.36V209.132Z" fill="#E6E6E6"/>
<path d="M1083.36 229.853H1050.24V245.048H1083.36V229.853Z" fill="#CCCCCC"/>
<path d="M1083.36 296.159H1050.24V311.354H1083.36V296.159Z" fill="#CCCCCC"/>
<path d="M1032.31 209.132H999.189V340.364H1032.31V209.132Z" fill="#E6E6E6"/>
<path d="M1032.31 229.853H999.189V245.048H1032.31V229.853Z" fill="#CCCCCC"/>
<path d="M1032.31 296.159H999.189V311.354H1032.31V296.159Z" fill="#CCCCCC"/>
<path d="M1111.89 208.589L1082.21 223.299L1140.37 340.906L1170.05 326.196L1111.89 208.589Z" fill="#E6E6E6"/>
<path d="M1121.08 227.159L1091.4 241.869L1098.13 255.486L1127.81 240.777L1121.08 227.159Z" fill="#CCCCCC"/>
<path d="M1150.46 286.581L1120.78 301.291L1127.52 314.909L1157.2 300.199L1150.46 286.581Z" fill="#CCCCCC"/>
<path d="M805.323 261.808L822.001 290.726L838.677 319.643H805.323H771.971L788.647 290.726L805.323 261.808Z" fill="#E6E6E6"/>
<path d="M834.3 267.334L850.976 296.251L867.654 325.168H834.3H800.947L817.624 296.251L834.3 267.334Z" fill="#E6E6E6"/>
<path d="M846.029 258.862C851.363 258.862 855.687 254.533 855.687 249.192C855.687 243.852 851.363 239.522 846.029 239.522C840.694 239.522 836.37 243.852 836.37 249.192C836.37 254.533 840.694 258.862 846.029 258.862Z" fill="#E6E6E6"/>
<path d="M713.565 142.825L1231 142.825V127.63L713.565 127.63V142.825Z" fill="#E6E6E6"/>
<path d="M1057.14 131.774L1188.23 131.774V0.542664L1057.14 0.542664V131.774Z" fill="#E6E6E6"/>
<path d="M1083.36 105.528L1162.01 105.528V26.789L1083.36 26.789V105.528Z" fill="#CCCCCC"/>
<path d="M861.207 131.774H894.322V0.542664H861.207V131.774Z" fill="#E6E6E6"/>
<path d="M861.207 36.4587L894.322 36.4587V21.2635L861.207 21.2635V36.4587Z" fill="#CCCCCC"/>
<path d="M861.207 102.765H894.322V87.57H861.207V102.765Z" fill="#CCCCCC"/>
<path d="M912.26 131.774H945.376V0.542664H912.26V131.774Z" fill="#E6E6E6"/>
<path d="M912.26 36.4587L945.376 36.4587V21.2635L912.26 21.2635V36.4587Z" fill="#CCCCCC"/>
<path d="M912.26 102.765H945.376V87.57H912.26V102.765Z" fill="#CCCCCC"/>
<path d="M774.513 117.607L804.191 132.317L862.351 14.7098L832.674 5.79819e-05L774.513 117.607Z" fill="#E6E6E6"/>
<path d="M816.756 32.1873L846.434 46.8971L853.168 33.2794L823.49 18.5696L816.756 32.1873Z" fill="#CCCCCC"/>
<path d="M787.37 91.6099L817.047 106.32L823.782 92.702L794.104 77.9922L787.37 91.6099Z" fill="#CCCCCC"/>
<path d="M1139.24 53.2185L1122.57 82.1357L1105.89 111.053H1139.24H1172.6L1155.92 82.1357L1139.24 53.2185Z" fill="#E6E6E6"/>
<path d="M1110.26 58.7441L1093.59 87.6613L1076.91 116.578H1110.26H1143.62L1126.94 87.6613L1110.26 58.7441Z" fill="#E6E6E6"/>
<path d="M1098.54 50.2725C1103.87 50.2725 1108.2 45.9433 1108.2 40.6028C1108.2 35.2624 1103.87 30.9332 1098.54 30.9332C1093.2 30.9332 1088.88 35.2624 1088.88 40.6028C1088.88 45.9433 1093.2 50.2725 1098.54 50.2725Z" fill="#E6E6E6"/>
<path d="M713.565 560.004L1231 560.004V544.809L713.565 544.809V560.004Z" fill="#E6E6E6"/>
<path d="M1057.14 548.953H1188.23V417.721H1057.14V548.953Z" fill="#E6E6E6"/>
<path d="M1083.36 522.707H1162.01V443.968H1083.36V522.707Z" fill="#CCCCCC"/>
<path d="M861.207 548.953H894.322V417.721H861.207V548.953Z" fill="#E6E6E6"/>
<path d="M861.207 453.637H894.322V438.442H861.207V453.637Z" fill="#CCCCCC"/>
<path d="M861.207 519.944H894.322V504.748H861.207V519.944Z" fill="#CCCCCC"/>
<path d="M912.26 548.953H945.376V417.721H912.26V548.953Z" fill="#E6E6E6"/>
<path d="M912.26 453.637H945.376V438.442H912.26V453.637Z" fill="#CCCCCC"/>
<path d="M912.26 519.944H945.376V504.748H912.26V519.944Z" fill="#CCCCCC"/>
<path d="M774.513 534.786L804.191 549.495L862.351 431.888L832.674 417.179L774.513 534.786Z" fill="#E6E6E6"/>
<path d="M816.756 449.366L846.434 464.076L853.168 450.458L823.49 435.748L816.756 449.366Z" fill="#CCCCCC"/>
<path d="M787.37 508.788L817.047 523.498L823.782 509.88L794.104 495.171L787.37 508.788Z" fill="#CCCCCC"/>
<path d="M1139.24 470.397L1122.57 499.314L1105.89 528.233H1139.24H1172.6L1155.92 499.314L1139.24 470.397Z" fill="#E6E6E6"/>
<path d="M1110.26 475.922L1093.59 504.84L1076.91 533.758H1110.26H1143.62L1126.94 504.84L1110.26 475.922Z" fill="#E6E6E6"/>
<path d="M1098.54 467.451C1103.87 467.451 1108.2 463.122 1108.2 457.781C1108.2 452.441 1103.87 448.112 1098.54 448.112C1093.2 448.112 1088.88 452.441 1088.88 457.781C1088.88 463.122 1093.2 467.451 1098.54 467.451Z" fill="#E6E6E6"/>
<path d="M609.539 908C946.177 908 1219.08 888.596 1219.08 864.66C1219.08 840.724 946.177 821.32 609.539 821.32C272.9 821.32 0 840.724 0 864.66C0 888.596 272.9 908 609.539 908Z" fill="#E6E6E6"/>
<path d="M1085.74 888.93C986.35 871.221 877.663 874.165 763.655 888.93C815.618 845.012 860.466 801.095 808.502 757.177C909.863 778.111 924.061 775.992 1036.82 757.177C1010.66 801.095 1059.59 845.012 1085.74 888.93Z" fill="#6C63FF"/>
<path opacity="0.2" d="M1085.74 888.93C986.35 871.221 877.663 874.165 763.655 888.93C815.618 845.012 860.466 801.095 808.502 757.177C909.863 778.111 924.061 775.992 1036.82 757.177C1010.66 801.095 1059.59 845.012 1085.74 888.93Z" fill="black"/>
<path d="M1061.5 870.194C977.069 856.057 884.744 858.407 787.898 870.194C832.039 835.137 870.135 800.081 825.994 765.025C912.096 781.736 924.156 780.044 1019.94 765.025C997.722 800.081 1039.28 835.137 1061.5 870.194Z" fill="#6C63FF"/>
<path d="M1029.34 813.71C1054.18 813.71 1074.33 793.546 1074.33 768.673C1074.33 743.801 1054.18 723.637 1029.34 723.637C1004.5 723.637 984.354 743.801 984.354 768.673C984.354 793.546 1004.5 813.71 1029.34 813.71Z" fill="#2F2E41"/>
<path d="M825.128 716.437L856.297 721.638L871.882 766.711L826.86 794.45L774.91 716.437H823.396H825.128Z" fill="#A0616A"/>
<path d="M913.442 785.781C953.609 785.781 986.171 753.182 986.171 712.97C986.171 672.757 953.609 640.159 913.442 640.159C873.275 640.159 840.713 672.757 840.713 712.97C840.713 753.182 873.275 785.781 913.442 785.781Z" fill="#A0616A"/>
<path d="M511.701 447.729C511.701 447.729 335.073 466.798 303.904 463.331C272.734 459.864 258.881 456.397 258.881 456.397C258.881 456.397 238.101 484.134 248.491 496.27C254.31 503.262 261.351 509.137 269.271 513.606C269.271 513.606 288.319 508.405 302.172 513.606C316.025 518.806 456.288 541.343 480.531 520.54C504.774 499.737 511.701 447.729 511.701 447.729Z" fill="#2F2E41"/>
<path d="M523.822 834.322C523.822 834.322 407.802 801.383 387.022 655.761V641.892C387.022 641.892 364.067 682.21 355.853 690.433C346.329 699.968 312.562 785.781 314.293 794.449C316.025 803.117 314.293 806.584 314.293 806.584L264.076 801.384V785.781C264.076 785.781 290.916 705.169 292.648 686.099C294.379 667.029 359.316 534.409 359.316 534.409C359.316 534.409 383.559 484.134 425.118 534.409C466.678 584.683 470.141 619.355 470.141 619.355L523.822 723.371L523.822 834.322Z" fill="#2F2E41"/>
<path d="M264.076 451.196L208.663 432.126C208.663 432.126 156.714 393.987 168.835 432.126C180.957 470.266 236.369 553.478 251.954 544.81C267.539 536.142 286.282 514.627 282.105 511.516C277.929 508.405 250.222 485.868 264.076 451.196Z" fill="#2F2E41"/>
<path d="M270.774 775.546L226.042 797.417C226.042 797.417 171.948 805.748 202.116 821.37C232.284 836.992 315.505 853.655 319.666 839.075C323.827 824.494 322.176 800.296 317.801 800.939C313.425 801.582 283.257 804.707 270.774 775.546Z" fill="#2F2E41"/>
<path d="M501.311 719.904C501.311 719.904 478.799 816.986 516.896 837.789C554.992 858.592 821.665 862.06 842.444 823.92C863.224 785.781 852.834 785.781 852.834 785.781L797.422 723.371L842.444 719.904C842.444 719.904 842.444 706.035 826.86 704.302C811.275 702.568 762.789 685.232 721.229 697.367C679.67 709.503 655.427 673.097 655.427 673.097L501.311 719.904Z" fill="#575A89"/>
<path d="M471.873 416.524L442.434 577.75L645.038 553.479L681.402 407.856L471.873 416.524Z" fill="#3F3D56"/>
<path d="M477.934 422.592L453.691 566.48L638.111 544.811L673.609 413.924L477.934 422.592Z" fill="white"/>
<path d="M449.361 579.483L442.434 577.75L438.972 584.683L494.385 738.974L499.596 736.979L501.31 726.839L449.361 579.483Z" fill="#B3B3B3"/>
<path d="M442.434 576.015L497.848 737.241L707.376 706.035L645.038 553.479L442.434 576.015Z" fill="#D0CDE1"/>
<path d="M470.142 570.815V579.483L624.257 562.147L622.526 553.479L470.142 570.815Z" fill="#3F3D56"/>
<path d="M473.604 588.151L497.848 655.761L655.427 636.692L627.721 572.548L473.604 588.151Z" fill="#3F3D56"/>
<path d="M671.012 683.499L665.817 669.63C665.817 669.63 625.989 600.286 605.209 614.155C584.43 628.023 648.501 695.634 648.501 695.634H669.28L671.012 683.499Z" fill="#A0616A"/>
<path d="M539.407 693.9L534.212 673.097C534.212 673.097 520.359 608.954 544.602 612.421C568.845 615.888 575.771 676.564 575.771 676.564L574.04 690.433L539.407 693.9Z" fill="#A0616A"/>
<path d="M580.966 685.232C580.966 685.232 535.944 678.298 534.212 688.699C532.48 699.101 523.822 855.125 567.113 860.326C610.404 865.527 825.128 888.064 802.617 834.322C780.105 780.58 745.473 787.515 745.473 787.515L598.283 803.117L580.966 685.232Z" fill="#575A89"/>
<path d="M716.9 705.169L671.012 673.097L640.708 696.501L678.805 738.107L716.9 705.169Z" fill="#575A89"/>
<path opacity="0.2" d="M593.954 736.374L600.88 802.251L720.364 795.316L616.465 793.583L593.954 736.374Z" fill="black"/>
<path d="M949.343 812.88C997.161 812.88 1035.93 774.072 1035.93 726.2C1035.93 678.328 997.161 639.52 949.343 639.52C901.525 639.52 862.761 678.328 862.761 726.2C862.761 774.072 901.525 812.88 949.343 812.88Z" fill="#2F2E41"/>
<path d="M503.909 472.866L611.271 469.124L621.66 429.526L510.836 432.875L503.909 472.866Z" fill="#6C63FF"/>
<path d="M476.203 495.403L638.976 490.202L640.708 483.267L477.934 489.005L476.203 495.403Z" fill="#E6E6E6"/>
<path d="M472.739 512.739L635.514 507.538L637.245 500.603L474.47 506.341L472.739 512.739Z" fill="#E6E6E6"/>
<path d="M471.007 526.607L633.781 521.407L635.514 514.472L472.739 520.209L471.007 526.607Z" fill="#E6E6E6"/>
</svg>
